<?xml version="1.0" standalone="no"?>
<!DOCTYPE svg PUBLIC "-//W3C//DTD SVG 20010904//EN"
 "http://www.w3.org/TR/2001/REC-SVG-20010904/DTD/svg10.dtd">
<svg version="1.0" xmlns="http://www.w3.org/2000/svg"
 width="563.000000pt" height="692.000000pt" viewBox="0 0 563.000000 692.000000"
 preserveAspectRatio="xMidYMid meet">
<metadata>
Created by potrace 1.16, written by Peter Selinger 2001-2019
</metadata>
<g transform="translate(0.000000,692.000000) scale(0.100000,-0.100000)"
fill="#000000" stroke="none">
<path d="M2685 6246 c-22 -7 -47 -10 -55 -8 -8 3 -11 1 -7 -4 7 -8 -33 -16
-191 -40 -23 -4 -45 -11 -48 -15 -3 -5 -18 -9 -35 -9 -16 0 -29 -3 -29 -7 0
-5 -16 -9 -37 -10 -42 -2 -82 -17 -135 -50 -21 -13 -44 -23 -52 -23 -8 0 -21
-6 -28 -13 -20 -19 -100 -57 -110 -51 -4 3 -8 1 -8 -5 0 -14 -53 -41 -82 -42
-17 -1 -18 -3 -5 -6 9 -2 17 -8 17 -13 0 -10 -31 -18 -48 -13 -6 3 -10 8 -8
11 7 12 -89 6 -114 -8 -22 -12 -49 -33 -144 -119 -17 -14 -34 -25 -39 -23 -4
1 -6 -2 -2 -8 3 -5 1 -19 -5 -30 -15 -28 -2 -25 22 5 11 14 25 25 33 25 7 0
19 8 26 18 13 15 12 16 -3 3 -31 -24 -19 3 13 32 17 15 36 24 42 20 7 -3 9 -3
5 1 -3 4 3 19 15 32 23 27 47 34 26 7 -13 -15 -12 -15 7 -5 37 20 104 31 104
18 0 -22 -77 -86 -104 -86 -16 0 -24 -5 -21 -12 5 -13 -71 -75 -86 -71 -4 2
-6 -4 -3 -11 6 -16 -29 -40 -41 -28 -3 4 -5 3 -4 -3 7 -25 -15 -77 -44 -102
-18 -14 -24 -24 -14 -20 9 3 17 4 17 2 0 -9 -25 -50 -48 -79 -13 -16 -20 -36
-17 -45 3 -8 3 -12 -1 -9 -7 8 -37 -26 -47 -55 -4 -10 -11 -16 -16 -13 -5 3
-8 0 -8 -7 0 -6 -3 -27 -8 -44 -5 -24 -13 -33 -29 -33 -17 0 -18 -2 -6 -10 8
-5 12 -11 10 -12 -13 -10 -68 -43 -90 -55 -22 -12 -23 -13 -4 -13 11 0 24 3
30 8 5 4 0 -1 -11 -12 -11 -10 -20 -22 -20 -26 0 -21 -15 -20 -16 1 -1 13 -3
17 -5 9 -3 -9 -14 -21 -25 -28 -17 -11 -24 -11 -37 0 -13 11 -14 11 -7 -1 6
-11 2 -13 -21 -7 -23 5 -26 4 -14 -5 12 -8 10 -9 -11 -5 -19 4 -29 1 -33 -10
-3 -8 -2 -12 4 -9 5 3 22 -1 38 -9 20 -11 32 -12 40 -4 7 7 16 7 29 -1 16 -9
16 -10 1 -11 -9 0 -20 -5 -23 -10 -4 -7 3 -9 22 -5 l28 7 -25 -15 c-14 -8 -61
-33 -105 -56 -59 -30 -73 -39 -51 -38 16 1 31 -4 33 -10 3 -7 0 -13 -7 -13 -6
0 -8 5 -5 10 3 6 2 10 -3 10 -16 0 -22 -13 -12 -25 7 -8 1 -10 -22 -7 -26 4
-30 2 -25 -12 4 -9 3 -16 -2 -16 -4 0 -20 -11 -36 -24 -19 -17 -23 -25 -14
-28 11 -4 10 -10 -6 -28 -18 -21 -18 -23 -2 -17 10 4 23 7 28 7 6 0 7 5 4 10
-3 6 -2 10 4 10 21 0 31 -36 16 -57 -8 -11 -11 -23 -8 -27 3 -3 1 -6 -5 -6
-18 0 -14 38 4 48 10 6 13 12 6 16 -6 3 -17 0 -25 -8 -8 -8 -17 -12 -21 -9 -3
4 -6 -1 -6 -11 0 -9 5 -14 10 -11 19 12 10 -14 -15 -42 -45 -51 -46 -53 -35
-53 5 0 10 -7 10 -15 0 -8 5 -15 11 -15 5 0 7 5 3 12 -5 7 -3 8 6 3 10 -6 10
-11 -3 -20 -20 -14 -22 -31 -5 -41 6 -4 8 -3 4 4 -9 15 12 26 27 14 24 -19 85
-26 79 -9 -1 4 3 7 8 7 6 0 10 -7 8 -16 -2 -10 3 -19 10 -21 7 -3 10 1 6 11
-4 11 1 19 17 24 27 10 71 3 63 -10 -3 -5 -12 -7 -19 -4 -7 2 -21 -2 -32 -9
-16 -13 -14 -13 22 -8 22 3 42 10 45 14 10 15 53 15 58 0 3 -10 0 -12 -10 -8
-9 3 -25 -1 -37 -9 -25 -18 -128 -27 -137 -13 -3 6 -17 8 -30 5 -14 -4 -32 -3
-42 2 -9 5 -33 12 -52 15 -19 3 -29 3 -22 0 6 -2 10 -9 7 -13 -3 -5 0 -12 6
-16 8 -4 9 -3 5 4 -4 7 -2 12 3 12 6 0 11 -5 11 -11 0 -6 9 -8 20 -4 11 3 25
3 32 -1 17 -11 42 -14 108 -14 48 -1 52 -2 30 -12 -44 -18 -96 -20 -135 -4
-44 19 -45 19 -45 6 0 -5 9 -10 20 -10 10 0 24 -8 29 -17 6 -10 11 -13 11 -7
0 8 16 7 52 -2 29 -8 59 -12 68 -9 8 2 22 0 30 -5 8 -5 19 -5 25 -1 18 15 74
21 81 9 4 -7 3 -8 -4 -4 -7 4 -12 1 -12 -8 0 -8 10 -17 22 -19 l23 -4 -22 -8
c-13 -4 -21 -11 -18 -15 3 -4 -15 -13 -40 -19 -46 -12 -61 -31 -24 -31 11 0
17 4 14 10 -3 6 0 10 9 10 8 0 17 -6 19 -12 3 -8 6 -6 6 5 1 9 8 17 16 17 8 0
15 5 15 12 0 21 14 -2 18 -30 2 -15 7 -28 13 -30 5 -2 9 -19 9 -38 0 -21 4
-33 10 -29 10 6 15 -13 12 -47 -1 -10 3 -18 8 -18 6 0 10 5 10 11 0 19 18 -1
25 -28 3 -14 15 -37 25 -50 10 -13 21 -41 25 -63 4 -25 11 -38 18 -33 6 4 8 1
5 -8 -3 -8 0 -23 7 -33 8 -10 11 -24 8 -32 -3 -8 2 -16 10 -20 9 -3 13 -12 10
-20 -3 -8 1 -14 8 -14 7 0 10 -3 6 -6 -3 -4 0 -13 8 -21 13 -13 13 -16 0 -29
-19 -19 -19 -25 0 -18 10 4 15 0 15 -11 0 -9 4 -14 9 -11 10 7 26 -49 17 -62
-2 -4 -1 -14 5 -22 6 -11 9 0 10 35 1 95 9 240 14 252 2 7 1 14 -3 17 -4 2 -6
25 -4 51 3 32 7 43 13 34 7 -11 9 -9 9 7 0 12 10 26 23 32 12 6 16 11 10 11
-9 1 -7 11 7 33 15 25 16 34 7 41 -7 5 -1 6 16 3 15 -4 27 -2 27 3 0 5 9 13
20 16 27 9 25 24 -2 18 -19 -4 -20 -3 -8 6 8 6 23 8 33 5 9 -3 17 0 17 6 0 9
-13 10 -46 5 -32 -4 -44 -3 -39 4 3 6 11 9 16 6 5 -4 22 3 38 15 17 11 36 19
43 18 7 -2 13 4 13 13 0 9 7 24 15 35 16 19 18 19 -36 -2 -14 -6 -15 -4 -1 22
8 16 17 36 21 44 3 8 4 1 2 -16 -4 -25 -2 -31 12 -30 9 0 20 6 24 11 5 6 8 6
8 -2 0 -6 -4 -15 -10 -18 -5 -3 -10 -11 -10 -17 0 -6 7 -5 18 3 15 13 16 12 3
-3 -7 -10 -18 -15 -24 -11 -6 4 -8 0 -4 -10 5 -13 -11 -28 -35 -31 -17 -2 -19
-16 -1 -16 19 0 57 32 88 75 12 17 14 18 15 3 0 -9 -5 -20 -11 -23 -6 -4 -8
-13 -5 -21 3 -8 -1 -14 -9 -14 -8 0 -15 -5 -15 -12 0 -7 -12 -25 -27 -41 -26
-28 -27 -29 -5 -23 12 4 22 4 22 0 0 -11 -34 -33 -52 -34 -10 0 -18 -5 -18
-12 0 -6 3 -9 6 -5 4 3 13 0 21 -8 13 -13 16 -13 29 0 21 20 27 19 19 -5 -9
-28 -1 -25 41 15 19 19 38 35 41 35 3 0 20 16 37 35 18 19 36 32 39 28 11 -10
8 -23 -4 -23 -7 0 -25 -13 -41 -30 -15 -16 -32 -30 -36 -30 -4 0 -13 -9 -19
-19 -11 -17 -10 -19 7 -16 11 2 28 11 36 20 9 9 23 14 31 11 8 -3 11 -2 8 3
-3 5 -1 12 5 16 6 4 8 10 5 15 -3 5 4 14 15 20 11 6 18 15 15 20 -3 6 0 7 8 4
13 -5 51 39 52 61 1 6 7 9 14 7 7 -1 10 2 6 8 -3 5 2 13 12 17 10 4 32 17 49
30 17 13 33 23 35 23 8 0 5 -55 -4 -61 -4 -3 6 -6 22 -7 17 0 31 3 31 7 0 9
45 31 63 31 7 -1 0 -8 -15 -16 -35 -18 -36 -29 -3 -30 14 -1 25 2 25 6 0 4 8
11 17 15 11 4 7 -6 -12 -26 -28 -30 -29 -31 -5 -18 34 18 59 19 53 2 -3 -8
-13 -11 -23 -8 -10 3 -23 -2 -31 -12 -9 -11 -10 -14 -1 -9 7 4 25 -2 42 -14
23 -16 29 -27 24 -42 -6 -19 -5 -19 15 -1 15 12 17 19 9 22 -7 2 -21 10 -30
19 -14 11 -15 18 -7 29 16 19 32 16 27 -5 -4 -14 0 -18 16 -18 17 1 21 -5 20
-26 -1 -15 5 -29 12 -32 8 -3 14 -1 14 5 0 12 25 39 35 39 4 0 0 -11 -9 -25
-20 -30 -16 -31 14 -5 20 17 35 19 158 16 75 -2 150 1 167 6 59 17 85 19 85 6
0 -7 8 -1 17 12 l17 24 7 -24 7 -25 1 27 c1 26 21 52 21 27 0 -7 7 -4 15 7 11
15 14 16 15 3 0 -8 -5 -20 -10 -25 -6 -6 -8 -18 -4 -27 5 -15 9 -15 36 -1 16
9 32 13 35 10 5 -5 -95 -60 -111 -61 -5 0 -11 -7 -13 -15 -4 -13 -3 -13 6 0 6
8 11 12 11 7 0 -4 11 0 24 9 14 8 40 18 58 20 18 2 46 7 63 9 28 5 28 5 10 -9
-11 -9 -26 -16 -32 -16 -7 0 -13 -5 -13 -11 0 -5 -5 -7 -10 -4 -6 4 -9 2 -8
-3 2 -5 -8 -19 -22 -30 -14 -12 -20 -21 -13 -22 6 0 15 5 18 10 3 6 10 10 15
10 12 0 1 -31 -18 -49 -17 -17 -84 -52 -76 -40 3 5 0 9 -5 9 -14 0 -14 -6 -1
-30 9 -18 7 -19 -20 -16 -27 3 -30 1 -30 -26 0 -17 -6 -31 -15 -33 -49 -16
-51 -18 -25 -24 29 -8 19 -17 -33 -26 -25 -5 -37 -4 -37 4 0 6 -5 11 -10 11
-6 0 -9 -5 -8 -11 2 -6 -3 -14 -11 -17 -10 -3 -12 0 -8 12 5 11 1 16 -12 16
-11 0 -21 -9 -25 -22 -7 -30 -66 -36 -66 -7 0 11 -5 19 -12 19 -6 0 -20 7 -30
17 -20 18 -25 4 -6 -15 8 -8 8 -12 1 -12 -10 0 -27 28 -25 41 1 4 -10 7 -24 7
-14 0 -36 10 -49 22 -28 26 -46 20 -23 -7 24 -29 28 -40 13 -40 -7 0 -19 10
-25 23 -13 22 -50 40 -50 23 0 -5 7 -9 15 -9 8 0 15 -5 15 -11 0 -5 -4 -7 -10
-4 -5 3 -10 1 -10 -5 0 -7 -10 -6 -27 3 -16 8 -39 18 -53 22 -24 7 -24 7 -5
-8 19 -15 18 -15 -17 -13 -21 2 -38 -1 -38 -7 0 -5 -13 -7 -30 -5 -19 3 -31 0
-34 -9 -4 -11 -10 -11 -26 -3 -13 7 -20 7 -20 0 0 -5 -9 -10 -20 -10 -11 0
-20 4 -20 9 0 5 -9 11 -20 14 -11 3 -20 1 -20 -4 0 -5 7 -9 16 -9 8 0 13 -4 9
-10 -8 -13 -35 -1 -35 17 0 10 -6 13 -16 9 -8 -3 -24 -1 -34 4 -22 12 -53 2
-43 -14 5 -8 3 -8 -8 1 -8 6 -41 14 -73 17 -32 2 -61 7 -64 10 -3 4 -15 -3
-27 -14 -12 -12 -26 -20 -31 -18 -15 4 -56 -13 -75 -31 -14 -13 -49 -79 -49
-93 0 -3 45 -2 78 1 7 0 11 5 7 11 -3 5 -13 6 -22 3 -11 -4 -14 -3 -9 5 5 8 2
10 -8 6 -9 -3 -16 -1 -16 5 0 16 50 13 80 -4 34 -20 42 -18 35 5 -4 12 -2 20
5 20 6 0 9 -4 5 -9 -3 -5 -1 -12 4 -16 6 -3 8 -13 5 -23 -5 -15 -4 -15 8 -2
19 22 102 25 122 4 9 -9 23 -13 31 -10 8 3 15 1 15 -5 0 -6 7 -8 17 -5 9 4 23
-1 34 -13 20 -21 15 -31 -15 -31 -15 0 -17 -3 -8 -9 8 -5 -1 -7 -25 -6 -21 2
-45 -3 -53 -10 -8 -7 -34 -18 -57 -24 -26 -7 -43 -18 -43 -26 0 -8 -5 -15 -10
-15 -16 0 -55 -42 -58 -63 -5 -27 10 -20 65 32 43 41 61 51 119 64 65 16 117
21 174 18 21 -2 19 -4 -15 -16 -21 -8 -47 -24 -56 -36 -11 -14 -18 -18 -23
-10 -4 6 -12 11 -17 11 -6 0 -7 -4 -4 -10 4 -6 -12 -8 -42 -6 -26 2 -37 2 -24
-1 22 -4 21 -6 -19 -29 -23 -13 -51 -24 -61 -24 -10 0 -19 -4 -19 -9 0 -4 -20
-19 -45 -32 -25 -13 -45 -27 -45 -30 0 -6 51 -33 60 -32 3 0 16 4 30 8 14 4
22 4 18 0 -4 -4 0 -14 8 -22 11 -12 18 -12 29 -3 7 6 13 17 11 23 -1 7 -1 9 1
5 3 -4 5 -11 6 -15 2 -18 27 -33 43 -26 13 5 15 3 9 -7 -5 -9 -4 -11 4 -6 16
11 2 29 -17 21 -9 -3 -13 -3 -9 1 4 4 1 14 -6 22 -9 11 -4 11 16 -2 15 -10 27
-14 27 -10 0 5 6 -2 13 -16 7 -14 18 -26 25 -26 7 -1 14 -2 17 -3 3 0 -2 -12
-10 -25 -16 -24 -16 -24 7 -20 18 4 16 2 -7 -10 -27 -13 -28 -14 -7 -15 12 -1
22 -6 22 -12 0 -15 210 -5 240 11 16 9 24 8 36 -5 22 -21 27 -19 13 6 -8 16
-8 20 1 14 31 -19 66 -15 90 11 14 15 18 23 10 19 -13 -8 -13 -6 -2 7 8 9 20
14 28 11 15 -5 46 26 38 38 -2 4 4 10 13 13 15 6 15 8 3 16 -10 7 -11 10 -2
10 22 0 13 15 -17 27 -24 9 -29 15 -24 33 7 26 12 28 78 33 46 4 50 6 47 28
-6 46 9 129 23 129 7 0 27 11 43 25 30 25 59 34 47 15 -4 -6 -10 -8 -15 -5 -5
3 -11 1 -15 -5 -4 -6 5 -10 20 -10 14 0 28 7 31 15 8 19 24 19 24 0 0 -8 6
-12 14 -9 8 3 18 -7 26 -25 7 -17 19 -31 26 -31 8 0 14 -7 14 -16 0 -10 -6
-14 -15 -10 -19 7 -19 1 1 -19 10 -9 19 -29 21 -43 7 -45 11 -306 5 -316 -3
-5 -7 -34 -9 -64 -4 -47 -2 -54 11 -49 15 6 15 4 0 -17 -10 -17 -12 -26 -4
-31 6 -4 8 -15 5 -26 -5 -14 -2 -19 10 -19 12 0 15 -5 11 -16 -3 -9 -6 -27 -6
-40 0 -14 -4 -22 -10 -19 -12 7 -12 -2 -1 -30 5 -11 3 -29 -3 -40 -12 -22 -13
-51 -2 -76 11 -27 -40 -119 -65 -119 -15 0 -19 -5 -15 -15 4 -12 2 -13 -15 -2
-17 10 -22 9 -33 -5 -7 -10 -19 -18 -26 -18 -7 0 -10 -7 -6 -15 10 -28 -18
-26 -75 4 -60 31 -105 37 -113 14 -4 -10 -13 -12 -27 -8 -14 5 -19 3 -15 -3 3
-6 -2 -12 -11 -14 -13 -2 -3 -12 31 -32 44 -26 54 -28 110 -21 113 12 123 11
160 -19 l30 -23 -21 -35 c-11 -19 -23 -51 -27 -71 -4 -20 -11 -37 -15 -37 -5
0 -11 -11 -13 -24 -4 -19 0 -26 19 -30 12 -4 23 -11 23 -16 0 -6 5 -10 11 -10
6 0 9 9 6 20 -4 16 -2 18 13 10 15 -8 17 -6 13 10 -3 11 0 20 6 20 6 0 11 7
11 16 0 12 7 15 26 11 19 -3 24 -1 20 10 -3 8 -6 16 -6 18 0 2 -12 2 -26 -1
-16 -3 -23 -1 -19 6 3 5 21 10 40 10 27 0 34 -5 39 -25 4 -14 11 -25 16 -25
14 0 12 17 -2 23 -10 4 -10 6 -1 6 7 1 10 8 7 16 -4 8 -1 15 6 15 6 0 8 -4 5
-10 -3 -6 -2 -10 4 -10 6 0 8 -6 5 -13 -2 -7 6 -22 18 -33 l23 -19 -18 22
c-23 27 -15 43 21 42 17 -1 21 -3 10 -6 -23 -6 -23 -9 4 -46 28 -40 29 -47 3
-71 l-20 -18 23 6 c13 5 22 3 22 -3 0 -6 -6 -11 -14 -11 -8 0 -21 -6 -28 -13
-20 -19 -99 -58 -107 -52 -5 2 -18 -5 -29 -16 -20 -18 -22 -18 -22 -2 0 11 -3
14 -8 7 -4 -7 -56 -12 -147 -12 -170 -1 -187 -3 -202 -18 -7 -7 -35 -15 -63
-19 -27 -4 -50 -11 -50 -15 0 -18 -93 0 -111 22 -11 11 -19 17 -19 12 0 -5 -9
2 -19 16 l-20 25 -40 -33 c-22 -17 -44 -32 -49 -32 -15 0 -24 -30 -26 -77 -2
-38 0 -43 21 -43 15 0 21 -5 17 -14 -3 -8 3 -16 16 -19 16 -4 20 -2 16 8 -3 8
0 12 8 9 7 -3 18 6 25 18 6 13 27 34 47 47 33 23 39 23 142 17 59 -4 125 -7
147 -7 22 0 34 -3 27 -5 -18 -8 -4 -24 14 -17 9 3 20 0 25 -8 6 -10 9 -10 9
-1 0 17 42 15 66 -3 10 -8 28 -14 39 -15 17 0 17 2 5 10 -19 13 -8 13 25 0 14
-5 77 -11 140 -12 82 -2 115 -6 115 -15 0 -16 -17 -26 -25 -13 -7 11 -49 -24
-51 -43 -3 -32 -5 -37 -15 -37 -5 0 -7 5 -3 11 5 9 -1 10 -22 4 -16 -4 -35 -8
-42 -8 -8 0 -19 -11 -25 -24 -5 -12 -14 -23 -19 -23 -5 0 -7 -4 -3 -9 3 -5 -3
-12 -12 -14 -17 -4 -17 -5 0 -6 16 -1 18 -8 13 -48 -6 -58 -4 -53 -16 -53 -5
0 -10 9 -10 20 0 27 -16 25 -24 -2 -5 -18 -8 -20 -15 -9 -6 9 -11 10 -15 2 -4
-6 -41 -11 -89 -12 -45 0 -76 -3 -69 -6 6 -2 12 -10 12 -17 0 -28 38 -47 101
-51 35 -2 65 -9 67 -15 2 -5 8 -8 13 -4 5 3 9 -1 9 -8 0 -9 3 -9 10 2 6 9 13
11 18 5 4 -5 13 -10 20 -11 6 -1 23 -2 37 -2 16 -1 29 -10 35 -24 5 -13 9 -17
9 -9 1 19 38 -29 42 -54 1 -11 -1 -39 -5 -62 -6 -32 -13 -43 -29 -46 -18 -3
-17 -5 6 -6 31 -1 38 -21 7 -21 -15 0 -20 -7 -21 -27 -1 -17 -3 -21 -6 -10 -2
9 -9 17 -14 17 -5 0 -7 -11 -3 -25 6 -24 4 -25 -18 -20 -16 4 -31 1 -40 -9
-12 -11 -18 -12 -28 -3 -10 10 -12 8 -6 -6 8 -26 -2 -41 -19 -27 -11 9 -15 2
-21 -37 -5 -36 -9 -43 -14 -28 -7 18 -8 17 -15 -7 -4 -16 -11 -28 -17 -28 -5
0 -6 -9 -3 -20 5 -15 2 -20 -13 -20 -11 0 -23 -6 -26 -12 -3 -7 -3 -3 0 10 7
30 -2 28 -20 -5 -8 -16 -15 -21 -16 -13 0 10 -11 15 -35 16 -19 1 -35 -1 -35
-5 0 -7 100 -55 145 -69 17 -6 39 -13 50 -18 11 -4 28 -6 38 -5 9 1 17 -2 17
-7 0 -5 -6 -10 -12 -9 -7 0 -24 -1 -38 -2 l-25 -2 25 -14 c17 -10 20 -14 9
-15 -18 0 -21 -30 -4 -42 6 -5 5 -8 -4 -8 -8 0 -11 -6 -7 -16 5 -14 4 -15 -8
-5 -8 7 -23 11 -33 9 -13 -3 -6 -9 24 -23 33 -14 40 -22 32 -32 -9 -10 -7 -13
7 -14 14 -1 13 -3 -6 -9 -14 -5 -18 -8 -9 -9 9 -1 29 -8 45 -16 19 -10 30 -11
35 -4 5 8 9 8 13 0 4 -6 17 -11 29 -12 19 -1 18 -2 -8 -14 -16 -8 -39 -12 -50
-9 -16 4 -17 3 -5 -5 14 -8 78 -16 90 -11 3 2 14 4 25 6 75 14 83 17 79 29 -7
18 6 24 66 29 36 3 56 10 62 21 6 9 22 21 36 27 16 6 22 12 14 15 -15 6 31 53
51 53 7 0 42 -17 77 -37 36 -21 100 -55 142 -76 43 -21 80 -43 84 -48 3 -6 16
-14 29 -19 18 -7 21 -14 17 -37 -5 -25 -4 -27 11 -14 10 8 17 9 17 3 0 -6 -9
-14 -20 -17 -11 -3 -20 -13 -20 -22 0 -9 6 -13 14 -10 10 4 12 0 8 -15 -4 -18
-6 -18 -14 -4 -13 24 -41 21 -33 -4 4 -13 2 -20 -6 -20 -7 0 -5 -6 6 -14 18
-13 18 -13 -1 -24 -13 -8 -14 -11 -5 -12 11 0 9 -4 -5 -15 -10 -8 -14 -15 -7
-15 7 0 10 -7 7 -15 -4 -8 -1 -15 5 -15 6 0 11 5 11 10 0 6 8 10 17 10 13 0
14 -3 5 -12 -7 -7 -12 -22 -12 -34 0 -12 -6 -25 -12 -27 -9 -4 -8 -6 2 -6 8
-1 21 -10 28 -21 11 -18 10 -20 -14 -20 -19 0 -25 -4 -20 -15 3 -8 -4 -21 -17
-30 -18 -12 -19 -15 -4 -15 20 0 23 -16 5 -23 -10 -4 -10 -6 -1 -6 6 -1 15 4
18 9 7 12 25 13 25 2 0 -4 -15 -16 -32 -26 -18 -11 -76 -47 -128 -80 -52 -34
-104 -66 -115 -73 -11 -6 -87 -52 -170 -101 -167 -100 -241 -138 -330 -170
-90 -33 -225 -71 -220 -62 3 5 -9 19 -27 32 -127 89 -204 185 -239 296 -19 63
-20 81 -14 307 8 304 22 551 33 590 5 17 6 57 1 90 -5 33 -9 75 -11 93 -1 18
-6 36 -11 39 -5 3 -28 -13 -51 -36 -23 -22 -50 -41 -60 -41 -25 0 -55 -18
-103 -61 -39 -36 -40 -38 -15 -33 15 2 34 0 42 -5 13 -9 13 -13 -1 -38 -9 -15
-22 -45 -28 -65 -12 -36 -15 -38 -52 -38 -52 0 -90 -21 -169 -92 -81 -74 -144
-105 -240 -118 -214 -30 -358 -89 -557 -227 -62 -43 -143 -90 -180 -106 -91
-37 -238 -168 -279 -248 -13 -26 -49 -74 -81 -106 -64 -66 -91 -98 -112 -134
-18 -30 -71 -138 -71 -144 0 -3 1211 -5 2690 -5 l2690 0 0 23 c0 17 -25 40
-107 100 -60 42 -142 106 -183 142 -100 88 -157 126 -197 132 -31 5 -39 1 -93
-56 -33 -33 -66 -61 -74 -61 -24 0 -94 78 -183 202 -99 137 -104 148 -71 148
14 0 39 7 57 16 18 9 42 13 55 10 17 -4 25 0 32 15 9 19 14 15 54 -42 43 -63
177 -209 190 -209 4 0 27 16 51 35 24 19 49 35 55 35 35 0 14 35 -72 121 -52
51 -104 108 -116 127 l-21 33 34 29 c21 18 41 27 52 24 10 -3 38 -6 62 -6 31
0 51 -6 68 -21 13 -12 45 -41 70 -65 26 -24 52 -40 57 -37 6 4 9 3 8 -2 -2 -5
15 -30 37 -55 39 -44 42 -45 65 -32 14 7 33 13 43 14 26 0 21 13 -26 72 -57
70 -107 144 -107 157 0 17 18 13 29 -6 6 -10 11 -12 11 -5 0 20 35 14 58 -11
12 -13 22 -27 22 -33 0 -5 -5 -2 -10 6 -5 8 -10 10 -10 4 0 -5 14 -23 30 -39
26 -25 30 -26 30 -10 0 15 9 10 43 -23 23 -23 46 -42 50 -42 4 0 7 33 5 73
l-3 72 -70 23 c-38 12 -81 24 -94 27 -13 2 -36 15 -50 28 -41 38 -111 78 -123
71 -6 -4 -8 -3 -5 3 4 6 -13 24 -37 41 -68 49 -134 108 -246 224 -115 117
-154 141 -205 126 -26 -8 -39 -6 -76 12 -69 35 -146 107 -185 172 -40 65 -109
118 -154 118 -20 0 -35 13 -65 52 -22 29 -42 55 -46 58 -10 9 -105 154 -137
211 -30 53 -31 59 -26 135 3 43 7 277 9 519 2 242 4 445 4 452 1 7 14 5 41 -8
118 -57 251 23 284 172 8 35 26 92 40 125 14 34 33 106 41 160 22 139 30 180
51 256 17 61 17 74 5 150 -8 46 -16 106 -18 135 -11 118 -120 135 -252 38 -43
-31 -61 -32 -55 -2 2 12 6 36 8 54 3 18 11 42 20 54 10 15 12 27 6 40 -7 12
-6 19 5 22 9 4 12 1 8 -9 -3 -7 0 -14 5 -14 13 0 7 37 -9 56 -10 12 -9 13 5 8
9 -3 16 -1 16 5 0 6 -5 11 -10 11 -7 0 -7 6 -2 18 5 9 7 23 4 31 -3 9 0 12 10
9 11 -5 14 0 10 18 -2 14 0 24 8 24 7 0 9 8 5 21 -5 13 -3 19 3 15 6 -4 7 6 2
29 -5 21 -4 35 1 35 6 0 5 9 -1 21 -9 16 -8 24 4 37 16 18 19 79 4 88 -4 3 -6
10 -2 15 3 6 12 5 22 -3 11 -9 10 -3 -4 17 -21 29 -41 100 -26 91 4 -2 7 18 8
44 0 27 -2 47 -6 45 -7 -4 -4 61 4 74 4 5 2 12 -3 15 -14 9 -3 68 16 82 21 16
10 18 -18 4 -13 -8 -19 -7 -19 0 0 6 -11 28 -25 50 -30 47 -33 65 -5 30 11
-14 20 -20 20 -15 0 15 -30 56 -38 52 -4 -3 -17 17 -30 42 l-22 46 22 -29 c34
-45 69 -77 78 -71 13 8 33 -23 26 -42 -4 -10 -4 -14 0 -10 4 4 13 2 21 -4 40
-34 -12 55 -57 97 -19 18 -48 50 -65 73 -27 37 -56 58 -39 29 4 -7 -2 -4 -14
6 -25 21 -31 36 -7 16 9 -8 15 -9 15 -2 0 6 -5 14 -10 17 -6 4 -8 10 -5 14 2
5 -5 17 -18 27 -22 19 -22 19 -7 -1 8 -12 -2 -3 -23 20 -21 22 -58 70 -82 106
-25 37 -65 91 -90 120 -25 29 -45 56 -45 61 0 4 -8 18 -17 30 -29 36 -155 159
-160 155 -2 -3 -25 15 -50 39 -25 24 -54 44 -64 44 -10 0 -41 20 -68 44 -27
24 -59 47 -70 51 -12 3 -21 10 -21 15 0 5 -6 7 -13 4 -8 -3 -37 11 -66 31 -29
19 -62 35 -72 35 -10 0 -46 9 -80 21 -36 13 -72 19 -89 15 -34 -6 -50 9 -19
19 11 4 18 9 16 11 -7 7 -57 -18 -52 -26 3 -4 -10 -6 -28 -4 -17 1 -42 3 -54
3 -12 1 -29 8 -37 17 -9 8 -20 13 -25 10 -5 -4 -22 -1 -38 5 -43 16 -192 20
-238 5z m601 -2701 c-3 -8 -1 -15 4 -15 6 0 10 4 10 9 0 9 58 -1 78 -13 6 -3
13 -2 16 2 9 15 58 1 52 -14 -7 -17 10 -19 18 -1 5 9 7 9 12 -1 4 -8 11 -9 17
-4 15 10 129 3 122 -8 -3 -5 -1 -11 5 -15 5 -3 10 1 10 9 0 9 9 16 20 16 11 0
20 -4 20 -10 0 -5 7 -7 15 -4 8 4 22 1 30 -6 12 -10 13 -16 3 -28 -11 -13 -11
-14 0 -8 18 11 52 -21 52 -48 0 -18 -2 -19 -11 -6 -9 12 -10 11 -6 -8 3 -12 1
-20 -3 -17 -17 10 -32 -36 -26 -78 3 -23 3 -35 -2 -27 -10 21 -47 27 -39 6 4
-9 2 -16 -3 -16 -15 0 -39 -57 -28 -68 7 -7 1 -15 -17 -25 -21 -10 -24 -16
-15 -22 9 -5 15 -4 18 3 2 7 11 12 19 12 13 0 13 -3 3 -15 -7 -8 -21 -15 -32
-15 -18 0 -18 -2 -4 -22 20 -28 21 -52 2 -45 -8 3 -17 1 -20 -6 -2 -7 -5 -4
-5 6 -1 10 6 17 17 18 14 0 14 2 -3 8 -26 11 -34 5 -28 -18 5 -20 -23 -55 -38
-45 -5 3 -12 -2 -15 -11 -5 -12 -14 -15 -32 -10 -22 5 -24 4 -13 -9 11 -13 11
-16 -3 -16 -9 0 -16 4 -16 9 0 5 -16 26 -35 47 -19 22 -35 44 -35 50 0 7 -7
14 -15 18 -8 3 -15 17 -15 32 0 15 -7 32 -16 39 -9 6 -17 25 -18 43 -2 17 -11
43 -21 58 -9 15 -18 37 -19 50 0 12 -3 21 -5 18 -8 -8 -42 47 -35 57 4 7 3 9
-3 6 -16 -10 -25 40 -13 63 6 12 16 18 22 14 6 -4 8 1 4 13 -5 17 -2 19 29 15
24 -3 35 -9 35 -21 0 -10 3 -12 8 -5 4 6 14 14 22 17 11 4 10 6 -5 6 -17 1
-18 3 -5 12 11 8 5 9 -23 4 -20 -3 -42 -3 -47 0 -9 5 -3 35 7 35 3 0 3 -7 -1
-15z"/>
<path d="M1235 3800 c8 -16 15 -40 15 -55 0 -14 4 -25 10 -25 5 0 9 -10 9 -22
-2 -44 14 -143 24 -149 5 -4 6 -12 3 -18 -4 -6 -2 -11 3 -11 6 0 11 -11 11
-25 0 -15 6 -25 14 -25 8 0 16 -3 19 -7 2 -5 2 -1 0 7 -4 12 -3 202 0 252 2
26 57 34 96 14 17 -9 31 -12 31 -7 0 8 -22 21 -45 26 -5 2 -37 19 -70 39 -41
24 -72 36 -98 36 l-38 0 16 -30z"/>
<path d="M1510 3605 c-7 -8 -10 -21 -7 -30 4 -8 -1 -21 -9 -29 -8 -9 -16 -29
-17 -46 -2 -24 -5 -29 -22 -24 -15 4 -16 3 -6 -4 7 -5 11 -14 7 -20 -3 -6 -2
-13 3 -17 6 -3 7 -13 4 -22 -5 -12 -2 -15 8 -11 10 4 15 -3 16 -23 3 -48 6
-59 15 -59 5 0 8 -7 6 -16 -2 -10 3 -19 10 -21 9 -4 12 34 12 166 0 94 -2 171
-4 171 -2 0 -9 -7 -16 -15z"/>
<path d="M5369 539 l-47 -21 44 -40 c25 -23 75 -86 112 -141 38 -57 84 -113
107 -129 l40 -30 3 32 c2 17 -1 37 -7 44 -5 6 -24 49 -40 94 -77 208 -109 237
-212 191z"/>
</g>
</svg>
